<svg xmlns="http://www.w3.org/2000/svg" width="280" height="180" viewBox="0 0 280 180" fill="none">
  <defs>
    <linearGradient id="bg" x1="16" y1="16" x2="268" y2="164" gradientUnits="userSpaceOnUse">
      <stop stop-color="#0D7F60"/>
      <stop offset="1" stop-color="#FF7D1F"/>
    </linearGradient>
    <linearGradient id="ray" x1="70" y1="112" x2="118" y2="72" gradientUnits="userSpaceOnUse">
      <stop stop-color="#0D7F60"/>
      <stop offset="1" stop-color="#F08A2E"/>
    </linearGradient>
  </defs>

  <rect x="0" y="0" width="280" height="180" rx="34" fill="url(#bg)"/>
  <rect x="12" y="12" width="256" height="156" rx="24" fill="#F7FFF9" opacity="0.98"/>

  <text x="102" y="52" fill="#2D6757" font-family="'Avenir Next', 'Segoe UI', Arial, sans-serif" font-size="34" font-weight="700" letter-spacing="0.15">Align</text>

  <g stroke-linecap="round" stroke-linejoin="round">
    <path d="M66 112L146 112" stroke="#0E7B5D" stroke-width="8"/>
    <path d="M66 112L122 64" stroke="url(#ray)" stroke-width="8"/>
    <path d="M88 112A22 22 0 0 0 82.6 97.5" stroke="#F08A2E" stroke-width="3.5"/>
  </g>

  <text x="160" y="124" fill="#0E7B5D" font-family="'Space Grotesk', Arial, sans-serif" font-size="58" font-weight="700" letter-spacing="-1.15">42</text>

  <g stroke="#0F6F55" stroke-width="2.2" stroke-linecap="round">
    <path d="M44 140H236"/>
    <path d="M44 140V126"/>
    <path d="M56 140V132"/>
    <path d="M68 140V126"/>
    <path d="M80 140V132"/>
    <path d="M92 140V126"/>
    <path d="M104 140V132"/>
    <path d="M116 140V126"/>
    <path d="M128 140V132"/>
    <path d="M140 140V126"/>
    <path d="M152 140V132"/>
    <path d="M164 140V126"/>
    <path d="M176 140V132"/>
    <path d="M188 140V126"/>
    <path d="M200 140V132"/>
    <path d="M212 140V126"/>
    <path d="M224 140V132"/>
    <path d="M236 140V126"/>
  </g>
</svg>
